<?xml version="1.0" standalone="no"?><!-- Generator: Gravit.io --><svg xmlns="http://www.w3.org/2000/svg" xmlns:xlink="http://www.w3.org/1999/xlink" style="isolation:isolate" viewBox="0 0 300 300" width="300" height="300"><defs><clipPath id="_clipPath_vUjLGhFOC0pPDiC0xboXnhVifDecMeq8"><rect width="300" height="300"/></clipPath></defs><g clip-path="url(#_clipPath_vUjLGhFOC0pPDiC0xboXnhVifDecMeq8)"><path d=" M 19.244 110.815 C 30.014 91.282 50.811 78.044 74.675 78.044 C 98.539 78.044 119.335 91.282 130.105 110.815 C 119.335 130.347 98.539 143.585 74.675 143.585 C 50.811 143.585 30.014 130.347 19.244 110.815 Z " fill="rgb(255,126,102)"/><path d=" M 72.419 101.491 C 60.566 97.944 52.783 91.116 53.811 84.096 C 54.839 77.076 64.379 71.898 76.93 70.676 C 88.784 74.223 96.566 81.051 95.539 88.071 C 94.511 95.091 84.971 100.269 72.419 101.491 Z " fill="rgb(255,255,255)"/><g id="Green Body"><path d=" M 223.985 134.561 C 224.759 128.747 225.158 122.771 225.158 116.678 C 225.158 57.558 187.607 9.561 141.354 9.561 C 95.102 9.561 57.551 57.558 57.551 116.678 C 57.551 122.771 57.95 128.747 58.724 134.561 L 223.985 134.561 Z " fill="rgb(255,255,255)"/><path d=" M 50.522 181.535 Q 43.023 215.92 28.008 242.352 Q -0.368 292.304 151.918 290.367 Q 301.136 291.336 271.555 244.714 Q 253.966 217.182 241.313 179.633 Q 141.081 239.103 50.522 181.535 Z  M 56.23 144.251 Q 57.61 129.719 57.917 114.052 L 224.555 114.839 Q 227.871 131.949 231.89 147.636 Q 131.472 200.589 56.23 144.251 Z " fill="rgb(255,255,255)"/><path d=" M 223.985 134.561 C 224.759 128.747 225.158 122.771 225.158 116.678 C 225.158 57.558 187.607 9.561 141.354 9.561 C 95.102 9.561 57.551 57.558 57.551 116.678 C 57.551 122.771 57.95 128.747 58.724 134.561 L 223.985 134.561 Z " fill="rgb(82,204,153)"/><path d=" M 57.917 114.561 Q 56.383 192.91 28.008 242.862 Q -0.368 292.814 151.918 290.876 Q 301.136 291.845 271.555 245.223 Q 240.222 196.179 224.555 115.348 L 57.917 114.561 Z " fill="rgb(82,204,153)"/></g><g id="Body"><path d=" M 223.985 134.755 C 224.759 128.932 225.158 122.947 225.158 116.844 C 225.158 57.633 187.607 9.561 141.354 9.561 C 95.102 9.561 57.551 57.633 57.551 116.844 C 57.551 122.947 57.95 128.932 58.724 134.755 L 223.985 134.755 Z " fill="rgb(116,116,116)"/><path d=" M 50.522 181.802 Q 43.023 216.24 28.008 242.714 Q -0.368 292.743 151.918 290.803 Q 301.136 291.773 271.555 245.079 Q 253.966 217.504 241.313 179.897 Q 141.081 239.459 50.522 181.802 Z  M 56.23 144.46 Q 57.61 129.905 57.917 114.214 L 224.555 115.002 Q 227.871 132.139 231.89 147.85 Q 131.472 200.885 56.23 144.46 Z " fill="rgb(116,116,116)"/><path d=" M 223.985 134.755 C 224.759 128.932 225.158 122.947 225.158 116.844 C 225.158 57.633 187.607 9.561 141.354 9.561 C 95.102 9.561 57.551 57.633 57.551 116.844 C 57.551 122.947 57.95 128.932 58.724 134.755 L 223.985 134.755 Z " fill="rgb(116,116,116)"/><path d=" M 50.522 181.802 Q 43.023 216.24 28.008 242.714 Q -0.368 292.743 151.918 290.803 Q 301.136 291.773 271.555 245.079 Q 253.966 217.504 241.313 179.897 Q 141.081 239.459 50.522 181.802 Z  M 56.23 144.46 Q 57.61 129.905 57.917 114.214 L 224.555 115.002 Q 227.871 132.139 231.89 147.85 Q 131.472 200.885 56.23 144.46 Z " fill="rgb(116,116,116)"/></g><g id="Eye"><path d=" M 80.105 80.676 C 80.105 67.155 91.083 56.176 104.605 56.176 C 118.127 56.176 129.105 67.155 129.105 80.676 C 129.105 94.198 118.127 105.176 104.605 105.176 C 91.083 105.176 80.105 94.198 80.105 80.676 Z " fill="rgb(255,255,255)"/><path d=" M 86 80.676 C 86 72.717 92.462 66.255 100.421 66.255 C 108.38 66.255 114.842 72.717 114.842 80.676 C 114.842 88.636 108.38 95.097 100.421 95.097 C 92.462 95.097 86 88.636 86 80.676 Z " fill="rgb(70,70,70)"/></g></g></svg>