<?xml version="1.0" standalone="no"?><!-- Generator: Gravit.io --><svg xmlns="http://www.w3.org/2000/svg" xmlns:xlink="http://www.w3.org/1999/xlink" style="isolation:isolate" viewBox="0 0 300 300" width="300" height="300"><defs><clipPath id="_clipPath_l79FF6XB9ElJj6yffADC9ngwdbX0nvYN"><rect width="300" height="300"/></clipPath></defs><g clip-path="url(#_clipPath_l79FF6XB9ElJj6yffADC9ngwdbX0nvYN)"><path d=" M 2.25 150 C 2.25 68.455 68.455 2.25 150 2.25 C 231.545 2.25 297.75 68.455 297.75 150 C 297.75 231.545 231.545 297.75 150 297.75 C 68.455 297.75 2.25 231.545 2.25 150 Z " fill="rgb(68,171,128)"/><path d="M 134.135 42.134 L 226.428 134.427 C 234.622 142.621 234.622 155.924 226.428 164.117 L 226.428 164.117 C 218.235 172.311 204.932 172.311 196.738 164.117 L 104.445 71.824 C 96.251 63.631 96.251 50.327 104.445 42.134 L 104.445 42.134 C 112.638 33.94 125.942 33.94 134.135 42.134 Z" style="stroke:none;fill:#FFFFFF;stroke-miterlimit:10;"/><path d="M 104.445 228.176 L 196.738 135.883 C 204.932 127.689 218.235 127.689 226.428 135.883 L 226.428 135.883 C 234.622 144.076 234.622 157.379 226.428 165.573 L 134.135 257.866 C 125.942 266.06 112.638 266.06 104.445 257.866 L 104.445 257.866 C 96.251 249.673 96.251 236.369 104.445 228.176 Z" style="stroke:none;fill:#FFFFFF;stroke-miterlimit:10;"/><path d=" M 67.427 150 C 67.427 132.961 81.26 119.127 98.3 119.127 C 115.339 119.127 129.173 132.961 129.173 150 C 129.173 167.039 115.339 180.873 98.3 180.873 C 81.26 180.873 67.427 167.039 67.427 150 Z " fill="rgb(255,255,255)"/></g></svg>